REM DIRINDEX 1\2,1\3,1\4,1\5,1\6
REM DIRNAME cjc030,folder01,folder02,folder03,folder04,folder05
TITLE ""
FILE "Disc1Track20.mp3" MP3
  TRACK 01 AUDIO
    TITLE "3:cjc030_00472"
    INDEX 01 00:00:00
  TRACK 02 AUDIO
    TITLE "0:"
    INDEX 01 00:01:22
  TRACK 03 AUDIO
    TITLE "4:cjc030_00473"
    INDEX 01 00:01:32
  TRACK 04 AUDIO
    TITLE "0:"
    INDEX 01 00:08:54
  TRACK 05 AUDIO
    TITLE "5:cjc030_00474"
    INDEX 01 00:08:62
  TRACK 06 AUDIO
    TITLE "0:"
    INDEX 01 00:10:12
  TRACK 07 AUDIO
    TITLE "6:cjc030_00475"
    INDEX 01 00:10:25
  TRACK 08 AUDIO
    TITLE "0:"
    INDEX 01 00:15:54
  TRACK 09 AUDIO
    TITLE "3:cjc030_00476"
    INDEX 01 00:16:28
  TRACK 10 AUDIO
    TITLE "0:"
    INDEX 01 00:17:57
  TRACK 11 AUDIO
    TITLE "4:cjc030_00477"
    INDEX 01 00:17:69
  TRACK 12 AUDIO
    TITLE "0:"
    INDEX 01 00:19:07
  TRACK 13 AUDIO
    TITLE "5:cjc030_00478"
    INDEX 01 00:19:16
  TRACK 14 AUDIO
    TITLE "0:"
    INDEX 01 00:20:45
  TRACK 15 AUDIO
    TITLE "6:cjc030_00479"
    INDEX 01 00:20:57
  TRACK 16 AUDIO
    TITLE "0:"
    INDEX 01 00:24:16
  TRACK 17 AUDIO
    TITLE "3:cjc030_00480"
    INDEX 01 00:24:63
  TRACK 18 AUDIO
    TITLE "0:"
    INDEX 01 00:26:07
  TRACK 19 AUDIO
    TITLE "4:cjc030_00481"
    INDEX 01 00:26:15
  TRACK 20 AUDIO
    TITLE "0:"
    INDEX 01 00:29:36
  TRACK 21 AUDIO
    TITLE "5:cjc030_00482"
    INDEX 01 00:29:46
  TRACK 22 AUDIO
    TITLE "0:"
    INDEX 01 00:30:63
  TRACK 23 AUDIO
    TITLE "6:cjc030_00483"
    INDEX 01 00:31:00
  TRACK 24 AUDIO
    TITLE "0:"
    INDEX 01 00:34:24
  TRACK 25 AUDIO
    TITLE "3:cjc030_00484"
    INDEX 01 00:34:73
  TRACK 26 AUDIO
    TITLE "0:"
    INDEX 01 00:36:13
  TRACK 27 AUDIO
    TITLE "4:cjc030_00485"
    INDEX 01 00:36:21
  TRACK 28 AUDIO
    TITLE "0:"
    INDEX 01 00:41:22
  TRACK 29 AUDIO
    TITLE "5:cjc030_00486"
    INDEX 01 00:41:30
  TRACK 30 AUDIO
    TITLE "0:"
    INDEX 01 00:42:45
  TRACK 31 AUDIO
    TITLE "6:cjc030_00487"
    INDEX 01 00:42:63
  TRACK 32 AUDIO
    TITLE "0:"
    INDEX 01 00:47:52
  TRACK 33 AUDIO
    TITLE "3:cjc030_00488"
    INDEX 01 00:48:26
  TRACK 34 AUDIO
    TITLE "0:"
    INDEX 01 00:49:51
  TRACK 35 AUDIO
    TITLE "4:cjc030_00489"
    INDEX 01 00:49:59
  TRACK 36 AUDIO
    TITLE "0:"
    INDEX 01 00:51:46
  TRACK 37 AUDIO
    TITLE "5:cjc030_00490"
    INDEX 01 00:51:54
  TRACK 38 AUDIO
    TITLE "0:"
    INDEX 01 00:53:04
  TRACK 39 AUDIO
    TITLE "3:cjc030_00491"
    INDEX 01 00:53:55
  TRACK 40 AUDIO
    TITLE "0:"
    INDEX 01 00:55:06
  TRACK 41 AUDIO
    TITLE "4:cjc030_00492"
    INDEX 01 00:55:14
  TRACK 42 AUDIO
    TITLE "0:"
    INDEX 01 00:56:31
  TRACK 43 AUDIO
    TITLE "5:cjc030_00493"
    INDEX 01 00:56:39
  TRACK 44 AUDIO
    TITLE "0:"
    INDEX 01 00:57:68
  TRACK 45 AUDIO
    TITLE "3:cjc030_00494"
    INDEX 01 00:58:38
  TRACK 46 AUDIO
    TITLE "0:"
    INDEX 01 00:59:69
  TRACK 47 AUDIO
    TITLE "4:cjc030_00495"
    INDEX 01 01:00:02
  TRACK 48 AUDIO
    TITLE "0:"
    INDEX 01 01:01:72
  TRACK 49 AUDIO
    TITLE "5:cjc030_00496"
    INDEX 01 01:02:06
  TRACK 50 AUDIO
    TITLE "0:"
    INDEX 01 01:03:37
  TRACK 51 AUDIO
    TITLE "6:cjc030_00497"
    INDEX 01 01:03:49
  TRACK 52 AUDIO
    TITLE "0:"
    INDEX 01 01:07:33
  TRACK 53 AUDIO
    TITLE "3:cjc030_00498"
    INDEX 01 01:08:07
  TRACK 54 AUDIO
    TITLE "0:"
    INDEX 01 01:09:40
  TRACK 55 AUDIO
    TITLE "4:cjc030_00499"
    INDEX 01 01:09:48
  TRACK 56 AUDIO
    TITLE "0:"
    INDEX 01 01:11:35
  TRACK 57 AUDIO
    TITLE "5:cjc030_00500"
    INDEX 01 01:11:43
  TRACK 58 AUDIO
    TITLE "0:"
    INDEX 01 01:13:06
  TRACK 59 AUDIO
    TITLE "6:cjc030_00501"
    INDEX 01 01:13:16
  TRACK 60 AUDIO
    TITLE "0:"
    INDEX 01 01:17:47
